<svg width="145" height="41" viewBox="0 0 145 41" fill="none" xmlns="http://www.w3.org/2000/svg">
<path d="M11.1124 33.3806C8.21379 33.3806 5.86647 35.0543 4.73339 36.2405C4.73339 36.2405 1.97601 38.9974 0.109031 39.952C0.0271643 39.9973 0.0286133 40.0887 0.142357 40.0887H17.0184C20.3546 40.0887 21.9231 38.9485 23.9031 37.16C23.9031 37.16 26.7858 34.4572 28.7629 33.5845C28.9622 33.5085 28.9151 33.3806 28.7629 33.3806H11.1124ZM40.1047 33.3806C37.206 33.3806 34.8609 35.0543 33.7256 36.2405C33.7256 36.2405 30.969 38.9974 29.102 39.952C29.0194 39.9973 29.0208 40.0887 29.1353 40.0887H46.0447C49.3802 40.0887 50.9501 38.9485 52.9294 37.16C52.9294 37.16 55.7802 34.4572 57.7559 33.5845C57.9551 33.5085 57.9406 33.3806 57.7892 33.3806H40.1047ZM69.1302 33.3806C66.2323 33.3806 63.8857 35.0543 62.7512 36.2405C62.7512 36.2405 59.9938 38.9974 58.1268 39.952C58.0457 39.9973 58.0479 40.0887 58.1616 40.0887H75.071C78.4065 40.0887 79.9416 38.9485 81.9224 37.16C81.9224 37.16 84.8051 34.4572 86.7814 33.5845C86.9814 33.5085 86.9669 33.3806 86.8155 33.3806H69.1302ZM98.1225 33.3806C95.2253 33.3806 92.912 35.0543 91.7767 36.2405C91.7767 36.2405 88.986 38.9974 87.1183 39.952C87.0372 39.9973 87.0394 40.0887 87.1531 40.0887H104.062C107.398 40.0887 108.967 38.9485 110.947 37.16C110.947 37.16 113.832 34.4572 115.808 33.5845C116.008 33.5085 115.958 33.3806 115.808 33.3806H98.1225ZM127.147 33.3806C124.249 33.3806 121.901 35.0543 120.768 36.2405C120.768 36.2405 118.009 38.9974 116.143 39.952C116.061 39.9973 116.063 40.0887 116.176 40.0887H133.087C136.423 40.0887 137.991 38.9485 139.973 37.16C139.973 37.16 142.824 34.4572 144.798 33.5845C144.997 33.5085 144.985 33.3806 144.832 33.3806H127.147Z" fill="#0054A4" stroke="white" stroke-width="0.0787" stroke-miterlimit="11.474"/>
<path d="M70.1771 1C64.0081 1 57.9928 2.84769 57.9928 9.03539C57.9928 19.751 76.5213 14.0902 76.5213 20.6463C76.5213 22.7834 73.2358 23.6429 70.582 23.6429C65.815 23.6429 62.5295 22.9274 58.3644 20.408V25.7874C61.4695 26.8201 65.694 27.32 70.2785 27.32C76.6778 27.32 82.6649 25.6529 82.6649 19.3183C82.6649 8.12982 64.1356 13.1569 64.1356 7.67375C64.1356 5.46573 67.1089 4.71145 69.7054 4.71145C74.0748 4.71145 78.7918 6.00147 81.3833 8.42218V2.70224C78.0297 1.63441 73.577 1 70.1771 1ZM102.915 1.06797C91.7876 1.06797 84.4196 6.46413 84.4196 14.6874C84.4196 22.2345 91.1819 27.2857 101.295 27.2857C104.571 27.2857 107.495 26.8523 110.913 26.0249V19.6574C108.497 22.233 105.625 23.2665 102.543 23.2665C96.5706 23.2665 92.4852 19.5127 92.4852 14.107C92.4852 8.7752 96.7206 4.87956 102.643 4.87956C105.871 4.87956 108.458 6.0636 110.541 8.1152V1.7477C108.375 1.29747 105.659 1.06797 102.915 1.06797ZM128.868 1.06797C119.279 1.06797 112.499 6.63661 112.499 14.4827C112.499 22.1797 118.588 27.2864 127.654 27.2864C137.286 27.2864 143.92 21.8574 143.92 13.9733C143.923 6.23755 137.889 1.06797 128.868 1.06797ZM1.05518 1.85075V7.87766C3.1395 6.24778 7.4987 5.6331 12.26 5.59656V22.0416C12.26 24.433 12.0506 25.1142 11.045 26.3662H20.4618C19.4048 25.1142 19.2461 24.433 19.2461 22.0416V5.45915C23.3728 5.4957 28.2992 6.24632 30.3836 7.87839V1.85149H1.05518V1.85075ZM32.9156 1.85075C33.9009 3.10204 34.0965 3.81538 34.0965 6.20904V22.0416C34.0965 24.433 33.9183 25.1515 32.983 26.3662H55.7309V20.408C52.6099 22.6497 46.6699 22.6577 44.2559 22.6204H40.9487V15.7771H43.3786C45.0253 15.7771 47.9964 15.9737 49.7236 16.4927V11.3859C48.021 11.9378 45.0202 12.1015 43.3786 12.1015H40.9487V5.59948H44.2559C47.2111 5.59948 52.3505 6.21635 54.2798 7.84697V1.85441H32.9156V1.85075ZM128.229 4.77943C133.251 4.77943 136.565 8.97107 136.565 14.1428C136.565 19.3146 133.251 23.507 128.229 23.507C123.125 23.507 119.857 19.3146 119.857 14.1428C119.858 8.9718 123.125 4.77943 128.229 4.77943Z" fill="#F02E25" stroke="white" stroke-width="0.03" stroke-miterlimit="3.864"/>
</svg>
