<svg width="125" height="94" viewBox="0 0 125 94" fill="none" xmlns="http://www.w3.org/2000/svg">
<path fill-rule="evenodd" clip-rule="evenodd" d="M5.36179 76.8957C7.25034 76.4469 9.64375 76.4469 10.9339 78.0924C11.177 77.5875 11.364 76.8957 12.0372 76.8022C12.6355 76.69 13.5517 76.7835 13.6826 77.5314C13.907 78.5224 13.6452 79.5882 13.72 80.598C13.7013 81.5703 14.0379 82.6361 13.4769 83.4962C12.916 84.0946 11.9437 84.1133 11.1957 83.8889C10.4665 83.7019 10.3169 82.8792 10.186 82.2434C9.99902 81.4394 9.84943 80.4297 9.008 80.0931C7.92349 79.6256 6.5585 79.8874 5.73576 80.7102C4.74474 81.8695 4.48296 83.4775 4.48296 84.936C4.48296 86.3945 4.65125 87.9278 5.54878 89.1245C6.4837 90.5082 8.78362 90.6391 9.90553 89.4237C10.6161 88.5635 10.186 87.3481 10.5974 86.3945C11.4575 85.123 13.72 85.5344 14.1314 86.9929C14.468 88.227 14.2997 89.5919 13.6639 90.6952C12.7851 92.0975 11.1957 92.9577 9.56896 93.2007C7.69911 93.5373 5.66097 93.556 3.92201 92.6585C2.22045 91.8545 1.02374 90.1903 0.481486 88.3952C-0.172961 86.2823 -0.135564 83.945 0.444089 81.8321C1.02374 79.5134 2.93099 77.4379 5.36179 76.8957Z" fill="#025193"/>
<path fill-rule="evenodd" clip-rule="evenodd" d="M56.1838 0.306538C59.9796 -0.553593 64.0185 0.456125 67.2346 2.58775C69.1232 3.80316 70.7125 5.46732 72.0588 7.29977C72.6011 8.216 73.2742 9.24442 72.9003 10.3476C71.9093 10.4972 70.9369 10.1045 69.9272 10.1793C68.0013 10.2167 66.2062 11.4882 65.3461 13.1898C64.299 15.2092 64.1307 17.5652 64.1868 19.8091C64.2242 21.8285 64.8225 23.8666 66.1688 25.4373C67.7582 27.3259 70.2077 28.2982 72.6385 28.5226C75.892 28.7469 79.4073 27.9803 81.8568 25.6804C84.1194 23.5488 85.0356 20.3513 85.073 17.2848C85.1291 13.8069 84.269 10.3476 83.091 7.07539C82.4926 5.28034 81.1837 3.85925 80.4171 2.15769C80.4732 2.0081 80.6228 1.76502 80.7162 1.61543C81.0528 1.61543 81.4455 1.50324 81.6699 1.82112C90.8695 11.1891 100.05 20.5383 109.231 29.9063C110.222 30.9908 111.382 32.2436 111.251 33.8329C110.858 35.441 109.624 36.6377 108.502 37.7783C99.8448 46.4918 91.1874 55.1866 82.53 63.9188C81.9316 64.4798 81.4081 65.2651 80.548 65.3773C80.4919 65.2277 80.361 64.9659 80.2862 64.8163C80.4732 63.5635 81.1463 62.4977 81.6325 61.3571C82.1747 60.123 82.7918 58.9637 83.1657 57.6922C83.6893 55.8224 84.3251 53.9525 84.4185 51.9892C84.4933 49.708 84.3438 47.4267 84.0259 45.1642C83.6706 42.8643 82.4365 40.714 80.548 39.349C78.005 37.4417 74.6392 36.7125 71.4979 37.2735C68.824 37.8344 66.6924 39.8725 65.3835 42.1912C63.925 44.6968 63.6632 47.7446 64.3364 50.5307C64.7103 51.9705 65.2339 53.4103 66.1501 54.607C67.1785 55.9533 69.1419 56.7012 70.7686 56.0841C71.2922 55.9159 71.8158 55.7102 72.3393 55.8598C73.2368 56.6638 72.7133 57.9914 72.358 58.945C71.18 61.2636 69.4597 63.4326 67.1224 64.7228C64.1681 66.387 60.6902 67.1536 57.3244 66.6114C53.6221 66.1252 50.2938 63.9749 48.0874 61.0018C44.8899 56.7947 43.4875 51.5404 42.5526 46.3983C41.6551 40.7701 41.3746 35.0483 41.7299 29.3827C42.1412 23.9414 43.0388 18.5189 44.8338 13.3768C45.9183 10.2167 47.4142 7.16889 49.5645 4.62589C51.2474 2.55036 53.566 0.886191 56.1838 0.306538Z" fill="#025193"/>
<path fill-rule="evenodd" clip-rule="evenodd" d="M33.3903 3.16742C33.9513 2.66256 34.4 2.04551 35.0732 1.67154C35.3163 1.70894 35.578 1.78373 35.8211 1.85852C35.9333 2.71865 35.2976 3.3544 34.8862 4.04625C33.97 5.54213 33.0911 7.0754 32.1749 8.57128C29.5945 12.7597 28.3604 17.584 27.4629 22.3708C27.0515 25.0821 26.6963 27.8307 26.6028 30.5981C26.2288 35.8898 26.715 41.2188 27.8743 46.3983C28.9775 50.886 30.5294 55.2988 32.9229 59.2816C33.8204 60.9832 34.8675 62.6099 35.8585 64.2741C36.1016 64.592 36.0455 65.0033 36.0268 65.3773C35.2041 65.583 34.6431 64.9098 34.1196 64.3863C24.8077 55.224 15.4772 46.174 6.2214 37.0491C5.26778 36.0394 4.14587 34.8053 4.23936 33.3094C4.61333 31.3461 6.31489 30.0559 7.64249 28.7096C16.2064 20.1644 24.8077 11.6752 33.3903 3.16742Z" fill="#DD312A"/>
<path fill-rule="evenodd" clip-rule="evenodd" d="M74.2477 77.6622C75.22 76.6898 76.6972 76.5589 78.0061 76.5963C79.0906 76.615 80.2499 76.8207 81.0727 77.55C81.7084 78.1296 81.9328 79.1954 81.5214 79.9808C80.9418 80.9157 79.502 80.9905 78.6606 80.3734C78.2118 80.0369 78.2492 79.4198 78.1183 78.915C77.8004 78.915 77.3891 78.8402 77.1647 79.1019C76.6598 79.6629 76.8094 80.4856 76.7907 81.1775C77.4826 81.1588 78.1557 81.0653 78.8476 81.1401C79.9508 81.458 79.9882 83.1782 79.1093 83.7766C78.3988 83.9262 77.6508 83.7579 76.9216 83.8327C76.8655 86.0204 76.8281 88.1894 76.9403 90.3771C77.6695 90.4519 78.3801 90.1902 79.0906 90.321C80.0256 90.5641 80.2499 91.8356 79.8012 92.5836C79.4459 93.1071 78.7915 93.2006 78.2118 93.1632C76.2859 93.0136 74.3038 92.9949 72.3592 93.1258C71.6486 93.1632 70.8072 93.2941 70.2462 92.7145C69.7227 91.9478 69.9097 90.6202 70.9007 90.321C71.6299 90.2089 72.3405 90.4706 73.0323 90.3771C73.2006 88.9935 73.0884 87.5911 73.1071 86.2074C73.0884 85.4033 73.2567 84.5245 72.9014 83.7579C72.2096 83.7766 71.5177 83.9262 70.8446 83.7766C69.9471 83.4026 69.9658 82.0563 70.5267 81.4019C71.2747 80.8409 72.2844 81.1962 73.1632 81.1775C73.2567 79.9621 73.2941 78.5597 74.2477 77.6622Z" fill="#025193"/>
<path fill-rule="evenodd" clip-rule="evenodd" d="M37.2047 81.2898C38.2518 80.6914 39.542 80.6727 40.6639 81.028C42.4776 81.6637 43.2069 84.2254 42.0102 85.7026C41.1314 86.5067 39.4298 86.4693 38.794 85.3847C38.4762 84.8799 38.6258 84.2628 38.6632 83.6832C38.1396 83.8515 37.5973 84.0385 37.2608 84.4685C36.6063 85.2913 36.5315 86.4132 36.5315 87.4416C36.5689 88.4326 36.4193 89.461 36.6624 90.4333C37.3543 90.4333 38.0274 90.2464 38.7193 90.2837C40.0655 90.5642 40.0094 92.995 38.5884 93.1259C37.2047 93.2381 35.821 92.9576 34.4373 92.995C33.1845 92.9576 31.9504 93.2755 30.7163 93.1072C30.1366 92.9576 29.931 92.3406 29.931 91.817C29.8936 91.2374 30.0618 90.4707 30.6976 90.3024C31.3333 90.2463 31.9691 90.4146 32.6048 90.4333C32.7544 89.3675 32.6609 88.3204 32.6796 87.2546C32.6609 86.0579 32.7357 84.8425 32.6048 83.6645C31.9691 83.6271 31.3333 83.7393 30.7163 83.7767C29.4635 83.3092 29.7253 81.0093 31.0903 80.9532C32.5487 80.9906 33.9885 81.0093 35.4283 81.0093C35.5966 81.7572 35.6153 82.5239 35.5779 83.3092C35.9893 82.5426 36.438 81.7572 37.2047 81.2898Z" fill="#025193"/>
<path fill-rule="evenodd" clip-rule="evenodd" d="M50.7623 81.1401C51.9029 80.6352 53.2679 80.6726 54.3711 81.1962C55.6987 81.9254 56.2222 83.6644 55.7174 85.0668C55.1938 86.4505 53.0435 86.6748 52.1834 85.4968C51.772 84.9733 51.9029 84.3001 51.959 83.7018C50.6127 83.8888 49.9208 85.2538 49.8834 86.4879C49.8274 87.7781 49.8087 89.0682 49.8834 90.321C50.594 90.5267 51.2858 90.2089 51.9964 90.2836C53.3614 90.5454 53.324 92.9949 51.8655 93.1258C50.6127 93.238 49.3786 92.9949 48.1258 92.9949C46.873 92.9388 45.6389 93.1632 44.3861 93.1445C43.0398 93.1632 42.9089 91.2186 43.6568 90.4519C44.3487 90.0967 45.1527 90.4332 45.882 90.4332C46.0503 89.3113 45.9568 88.1707 45.9755 87.0488C45.9568 85.9269 46.0316 84.7863 45.882 83.6644C45.2649 83.627 44.6105 83.7392 43.9934 83.7392C43.0959 83.4026 43.0211 82.0937 43.5447 81.4206C44.0121 80.7661 44.9283 80.9344 45.6389 80.9531C46.686 81.0653 47.7144 80.9344 48.7615 80.9718C48.9111 81.7384 48.9111 82.5051 48.8737 83.2717C49.3412 82.449 49.8647 81.5701 50.7623 81.1401Z" fill="#025193"/>
<path fill-rule="evenodd" clip-rule="evenodd" d="M95.582 80.9718C96.2178 80.8035 96.8909 80.9531 97.5267 80.9531C98.7421 81.0653 99.9388 80.8222 101.135 80.9344C101.416 81.9254 101.322 82.9538 101.322 83.9449C101.341 85.4033 101.304 86.8431 101.341 88.3016C101.322 88.9935 101.64 89.7414 102.295 90.0032C103.043 90.2837 104.034 90.1715 104.52 89.4796C104.931 88.8252 104.969 88.0211 105.025 87.2545C105.043 86.0765 105.062 84.8798 104.969 83.7018C104.202 83.627 103.305 83.8701 102.669 83.3652C102.22 82.7108 102.22 81.6823 102.856 81.1401C103.267 80.7661 103.865 80.897 104.389 80.897C105.791 81.0466 107.231 80.8409 108.634 80.9157C108.708 81.2336 108.821 81.5328 108.839 81.8506C108.914 84.6741 108.764 87.4976 108.914 90.3211C109.737 90.4519 110.709 90.0406 111.42 90.5641C111.887 91.2373 111.887 92.3218 111.27 92.8827C110.709 93.4063 109.924 93.1071 109.251 93.1071C108.091 92.9575 106.913 93.2193 105.717 93.1445C105.661 92.4901 105.661 91.8356 105.698 91.1999C104.445 93.3315 101.416 94.0981 99.2843 92.9201C98.3868 92.4527 97.7511 91.5365 97.6202 90.508C97.3397 88.2455 97.6015 85.9643 97.4145 83.6831C96.7226 83.6083 96.0121 83.7579 95.3203 83.5709C94.4601 82.9912 94.6284 81.4206 95.582 80.9718Z" fill="#025193"/>
<path fill-rule="evenodd" clip-rule="evenodd" d="M113.719 80.9158C115.066 80.9532 116.431 81.084 117.777 80.9345C118.076 81.645 118.001 82.4116 118.02 83.1596C118.488 82.5051 118.843 81.7198 119.572 81.3084C120.731 80.5979 122.265 80.5979 123.48 81.2336C124.752 81.8694 125.2 83.4961 124.92 84.8237C124.583 86.3757 122.209 86.7684 121.292 85.5156C120.9 84.992 121.068 84.3002 121.087 83.7018C120.619 83.8514 120.114 84.001 119.778 84.3937C119.03 85.2164 118.974 86.4131 118.974 87.4415C118.974 88.4325 118.899 89.461 119.105 90.4333C119.834 90.4333 120.544 90.2089 121.255 90.3024C122.19 90.639 122.302 91.9292 121.835 92.6771C121.461 93.2007 120.731 93.182 120.152 93.182C118.544 93.0698 116.954 92.9389 115.384 93.0698C114.617 93.0885 113.832 93.2568 113.084 93.0698C112.13 92.5836 112.149 90.9942 112.934 90.3772C113.645 90.1715 114.393 90.5081 115.084 90.3398C115.141 88.1334 115.141 85.9457 115.066 83.7392C114.28 83.384 113.177 84.2441 112.635 83.3466C111.981 82.4864 112.504 80.8597 113.719 80.9158Z" fill="#025193"/>
<path fill-rule="evenodd" clip-rule="evenodd" d="M66.0747 88.5634C65.1024 88.9187 65.1585 90.3959 64.1114 90.5829C63.1952 90.7512 62.1107 90.6203 61.5123 89.8723C60.9888 89.2553 60.9327 88.3952 60.8953 87.6285C63.1578 87.6098 65.4203 87.6285 67.6828 87.6285C68.0194 87.6098 68.3934 87.6285 68.7112 87.4789C69.2535 86.9367 69.0852 86.0952 69.0478 85.4034C68.8982 83.8514 68.0568 82.3742 66.7292 81.5328C65.1772 80.6353 63.3261 80.5231 61.5871 80.7849C59.4555 81.1214 57.5856 82.8043 57.0621 84.9359C56.5946 86.8432 56.6881 88.9935 57.7352 90.7325C58.6327 92.2283 60.2782 93.182 61.9798 93.369C63.7748 93.5559 65.7382 93.4437 67.3275 92.4901C68.0942 92.0227 68.8047 91.2934 68.9356 90.3585C68.9917 89.8349 68.9543 89.2366 68.5429 88.8813C67.8511 88.283 66.8601 88.2643 66.0747 88.5634ZM61.6245 83.9262C62.2789 83.2344 63.4196 83.197 64.2423 83.5896C64.878 83.9449 65.065 84.7302 65.1398 85.4221C63.7748 85.4595 62.3724 85.4595 60.9888 85.4221C61.0822 84.8798 61.2131 84.3002 61.6245 83.9262Z" fill="#025193"/>
<path fill-rule="evenodd" clip-rule="evenodd" d="M94.1418 86.0017C93.9735 84.3001 93.0947 82.6547 91.6549 81.701C90.1964 80.71 88.3453 80.523 86.625 80.7474C84.2129 80.9905 82.1374 82.9352 81.726 85.3099C81.3147 87.4228 81.5764 89.8723 83.0723 91.5365C84.2316 92.8641 86.0454 93.4811 87.7843 93.4437C89.4859 93.4811 91.2996 93.0136 92.4777 91.7421C93.9922 90.2837 94.3849 88.0211 94.1418 86.0017ZM89.9534 89.2178C89.3737 90.7324 87.0738 91.0129 86.0828 89.7601C85.3161 88.8252 85.2787 87.5537 85.3348 86.4131C85.4096 85.4407 85.7649 84.3749 86.6437 83.8514C87.7843 83.2343 89.3924 83.6457 89.9534 84.8611C90.5517 86.2261 90.5704 87.8715 89.9534 89.2178Z" fill="#025193"/>
<path fill-rule="evenodd" clip-rule="evenodd" d="M28.6231 90.7698C28.0995 90.4519 27.4451 90.4519 26.9028 90.2276C26.7346 88.0024 26.9776 85.7773 26.7346 83.5709C26.6785 82.7855 26.2858 82.0002 25.5939 81.5515C24.472 80.8222 23.0883 80.6726 21.7795 80.6726C20.321 80.6352 18.7877 80.7287 17.4788 81.4954C16.5252 82.0189 16.0951 83.3465 16.6 84.3188C17.3105 85.4594 18.9747 85.4968 20.0405 84.8798C20.7323 84.5058 20.4519 83.6083 20.6014 82.9725C21.1624 82.8604 21.7608 82.6921 22.303 82.9538C22.8266 83.1782 23.0883 83.7579 23.0883 84.3001C22.9201 84.8985 22.3404 85.2351 21.7982 85.4033C20.5267 85.8147 19.1617 85.8708 17.8902 86.2822C17.1048 86.4879 16.3195 86.8805 15.8707 87.5724C15.2911 88.4325 15.2537 89.517 15.3846 90.5267C15.6276 91.9852 16.9365 93.051 18.3576 93.3315C20.3023 93.6681 22.4152 93.3689 24.0233 92.1535C24.8834 93.4624 26.6972 93.8364 28.0621 93.1258C28.9223 92.7145 29.1467 91.499 28.6231 90.7698ZM22.4713 90.2276C21.8355 90.8633 20.7323 90.9755 19.9283 90.5828C19.1617 90.1902 19.143 88.8813 19.947 88.5447C20.938 88.152 22.0038 88.0211 22.9949 87.6659C22.9949 88.5447 23.0883 89.517 22.4713 90.2276Z" fill="#025193"/>
</svg>
