<svg width="127" height="72" viewBox="0 0 127 72" fill="none" xmlns="http://www.w3.org/2000/svg">
<g clip-path="url(#clip0)">
<path d="M127.041 72H0V0H127.041" fill="#0A69B3"/>
<path d="M110.816 35.9589C110.816 46.7383 89.6827 55.4606 63.5607 55.4606C37.4793 55.4606 16.3059 46.7383 16.3059 35.9589C16.3059 25.1794 37.4388 16.4572 63.5607 16.4572C89.6422 16.4572 110.816 25.1794 110.816 35.9589Z" fill="#E30D18"/>
<path d="M26.0813 44.1873L28.6367 27.7302H35.1266C36.303 27.7302 37.2764 27.8947 38.1282 28.3062C38.9395 28.6765 39.5479 29.2936 39.913 30.0753C40.278 30.857 40.3592 31.8856 40.1969 33.161C39.8724 35.0947 39.1829 36.4936 38.0471 37.3987C36.9114 38.3039 35.4511 38.7565 33.5853 38.7565H31.1921L30.3403 44.2285L26.0813 44.1873ZM32.3684 31.1862L31.7194 35.3005H32.4496C32.9769 35.3005 33.4636 35.3005 33.9098 35.2182C34.3965 35.1359 34.7616 34.9713 35.1266 34.6833C35.4511 34.3953 35.6945 33.9427 35.7756 33.2845C35.8568 32.6262 35.8162 32.1325 35.5728 31.8033C35.3295 31.5153 35.005 31.3096 34.5588 31.2685C34.1126 31.1862 33.6259 31.1862 33.058 31.1862H32.3684ZM53.9069 31.3507H46.4029L45.9567 34.1073H53.2174L52.6495 37.7279H45.3889L44.9427 40.5667H52.4467L51.8788 44.1873H40.1564L42.7523 27.7302H54.4342L53.9069 31.3507ZM54.1097 44.1873L56.6651 27.7302H63.1145C64.2908 27.7302 65.2643 27.8947 66.1161 28.3062C66.9273 28.6765 67.5358 29.2936 67.9008 30.0753C68.2659 30.857 68.347 31.8856 68.1848 33.161C67.8603 35.0947 67.1707 36.4936 66.035 37.3987C64.8992 38.3039 63.439 38.7565 61.5732 38.7565H59.18L58.3282 44.2285L54.1097 44.1873ZM60.3563 31.1862L59.7073 35.3005H60.3968C60.9242 35.3005 61.4109 35.3005 61.8571 35.2182C62.3438 35.1359 62.7089 34.9713 63.0739 34.6833C63.3984 34.3953 63.6418 33.9427 63.7229 33.2845C63.8041 32.6262 63.7635 32.1325 63.5201 31.8033C63.2768 31.5153 62.9523 31.3096 62.5061 31.2685C62.0599 31.1862 61.5731 31.1862 61.0053 31.1862H60.3563ZM82.6655 28.1005L81.8542 33.2433C81.4892 32.6673 81.043 32.2147 80.4345 31.8856C79.8261 31.5976 79.1771 31.433 78.447 31.433C77.5952 31.433 76.7839 31.6387 76.0944 32.0502C75.4048 32.4616 74.7964 32.9965 74.3502 33.6959C73.904 34.3953 73.5795 35.1359 73.4579 35.9999C73.255 37.3165 73.4984 38.3862 74.188 39.209C74.837 40.0319 75.851 40.4433 77.1896 40.4845C77.8791 40.4845 78.5687 40.3199 79.2582 40.0319C79.9478 39.7027 80.5562 39.2913 81.0835 38.7565L80.2723 43.8993C79.5422 44.105 78.8932 44.3107 78.2847 44.4342C77.6763 44.5576 77.0679 44.6399 76.4189 44.6399C75.2831 44.6399 74.2285 44.4342 73.255 44.0227C72.2816 43.6113 71.4297 42.9942 70.6996 42.2125C69.9289 41.3896 69.4422 40.4433 69.1583 39.4147C68.9149 38.345 68.8743 37.2342 69.0771 35.9999C69.2394 34.8479 69.645 33.7782 70.2129 32.7496C70.7808 31.721 71.5109 30.7747 72.4032 29.9519C73.3362 29.129 74.3908 28.4707 75.5265 27.977C76.6623 27.5245 77.8386 27.2776 78.9743 27.2776C80.2723 27.3187 81.5297 27.5656 82.6655 28.1005ZM93.2927 27.1953C94.8746 27.1953 96.2943 27.5656 97.5112 28.3062C98.7686 29.0056 99.7015 29.993 100.351 31.2685C101 32.5439 101.202 34.025 100.959 35.6707C100.675 37.4399 100.026 39.0445 99.0525 40.4022C98.0791 41.7599 96.8622 42.8296 95.402 43.6113C93.9417 44.393 92.3192 44.7633 90.5751 44.7633C88.8309 44.7633 87.3301 44.3519 86.1132 43.6113C84.8964 42.8296 84.004 41.7599 83.4361 40.4022C82.8683 39.0445 82.7466 37.481 82.99 35.6707C83.2739 33.9839 83.9229 32.5439 84.9775 31.2685C86.0321 29.993 87.249 29.0056 88.7092 28.3062C90.1694 27.5656 91.7108 27.1953 93.2927 27.1953ZM92.6437 31.3096C91.7919 31.3096 90.9807 31.5153 90.2506 31.9267C89.4799 32.3382 88.8715 32.873 88.3441 33.5313C87.8168 34.1896 87.4923 34.889 87.3707 35.6707C87.249 36.617 87.2895 37.481 87.614 38.2216C87.898 38.9622 88.3847 39.5382 88.9931 39.9496C89.6016 40.361 90.3723 40.5667 91.1835 40.6079C92.0353 40.6079 92.8465 40.4022 93.5767 39.9496C94.3473 39.5382 94.9558 38.9622 95.4831 38.2216C96.0104 37.481 96.3349 36.6582 96.4971 35.6707C96.6188 34.889 96.4971 34.1896 96.2132 33.5313C95.8887 32.873 95.4425 32.3382 94.7935 31.9267C94.2257 31.5565 93.4955 31.3507 92.6437 31.3096Z" fill="white"/>
<path d="M108.463 35.9997C108.463 34.1894 107.774 32.1323 106.557 30.5277C105.624 29.1289 103.88 27.9357 102.339 26.9894C104.853 29.17 105.908 32.1734 105.908 34.8066C105.908 43.2409 92.9688 50.3586 76.1355 52.9917C67.658 54.3495 66.6845 54.5963 76.2977 53.4855C94.0639 51.4283 108.463 44.434 108.463 35.9997Z" fill="white"/>
<path d="M39.5883 16.4158C94.9556 4.60776 117.914 23.6158 115.237 35.9586C115.196 36.1232 115.196 36.3289 115.156 36.4935C123.308 24.1095 117.386 1.72776 74.634 6.58262C65.4669 7.61119 51.838 11.5609 39.5883 16.4158ZM87.5327 55.5426C32.1654 67.3918 9.20727 48.3838 11.8844 35.9998C11.9249 35.8352 11.9249 35.6295 11.9655 35.4649C3.81251 47.8489 9.73457 70.2306 52.487 65.3758C61.6541 64.3061 75.283 60.3563 87.5327 55.5426Z" fill="#FFDD09"/>
</g>
<defs>
<clipPath id="clip0">
<rect width="127" height="72" fill="white"/>
</clipPath>
</defs>
</svg>
